# AST/ASF file generated using VICON BodyLanguage
# -----------------------------------------------
:version 1.10
:name VICON
:units
  mass 1.0
  length 0.45
  angle deg
:documentation
   .ast/.asf automatically generated from VICON data using
   VICON BodyBuilder and BodyLanguage model FoxedUp or BRILLIANT.MOD
:root
   order TX TY TZ RX RY RZ
   axis XYZ
   position 0 0 0  
   orientation 0 0 0 
:bonedata
  begin
     id 1 
     name lhipjoint
     direction 0.588788 -0.725889 0.355548 
     length 2.37778 
     axis 0 0 0  XYZ
  end
  begin
     id 2 
     name lfemur
     direction 0.34202 -0.939693 0  
     length 6.86393  
     axis 0 0 20  XYZ
    dof rx ry rz
    limits (-160.0 20.0)
           (-70.0 70.0)
           (-60.0 70.0)
  end
  begin
     id 3 
     name ltibia
     direction 0.34202 -0.939693 0   
     length 7.32851   
     axis 0 0 20   XYZ
    dof rx
    limits (-10.0 170.0)
  end
  begin
     id 4 
     name lfoot
     direction 0.0626533 -0.172138 0.983078   
     length 1.98929   
     axis -90 7.62852e-016 20   XYZ
    dof rx rz
    limits (-45.0 90.0)
           (-70.0 20.0)
  end
  begin
     id 5 
     name ltoes
     direction 1.53647e-011 -4.21734e-011 1   
     length 1.00479   
     axis -90 7.62852e-016 20   XYZ
    dof rx
    limits (-90.0 20.0)
  end
  begin
     id 6 
     name rhipjoint
     direction -0.59141 -0.724168 0.354705   
     length 2.38343  
     axis 0 0 0  XYZ 
  end
  begin
     id 7 
     name rfemur
     direction -0.34202 -0.939693 0   
     length 6.95589   
     axis 0 0 -20   XYZ
    dof rx ry rz
    limits (-160.0 20.0)
           (-70.0 70.0)
           (-70.0 60.0)
  end
  begin
     id 8 
     name rtibia
     direction -0.34202 -0.939693 0   
     length 7.32327   
     axis 0 0 -20   XYZ
    dof rx
    limits (-10.0 170.0)
 end
 begin
     id 9 
     name rfoot
     direction -0.0660461 -0.18146 0.981178   
     length 1.85272  
     axis -90 -7.62852e-016 -20   XYZ
    dof rx rz
    limits (-45.0 90.0)
           (-20.0 70.0)
  end
  begin
     id 10 
     name rtoes
     direction -1.53586e-011 -4.21988e-011 1   
     length 0.93746   
     axis -90 -7.62852e-016 -20   XYZ
    dof rx
    limits (-90.0 20.0)
  end
  begin
     id 11 
     name lowerback
     direction -0.0107982 0.991059 0.13299   
     length 1.98691   
     axis 0 0 0   XYZ
    dof rx ry rz
    limits (-20.0 45.0)
           (-30.0 30.0)
           (-30.0 30.0)
  end
  begin
     id 12 
     name upperback
     direction 0.0076296 0.999916 0.0104576   
     length 1.99501   
     axis 0 0 0   XYZ
    dof rx ry rz
    limits (-20.0 45.0)
           (-30.0 30.0)
           (-30.0 30.0)
  end
  begin
     id 13 
     name thorax
     direction 0.01176 0.998615 -0.0512909   
     length 2.03144   
     axis 0 0 0   XYZ
    dof rx ry rz
    limits (-20.0 45.0)
           (-30.0 30.0)
           (-30.0 30.0)
  end
  begin
     id 14 
     name lowerneck
     direction -0.0171909 0.999644 0.0204011   
     length 1.71818   
     axis 0 0 0   XYZ
    dof rx ry rz
    limits (-20.0 45.0)
           (-30.0 30.0)
           (-30.0 30.0)
  end
  begin
     id 15 
     name upperneck
     direction 0.0250902 0.997482 -0.0663316   
     length 1.66199   
     axis 0 0 0   XYZ
    dof rx ry rz
    limits (-20.0 45.0)
           (-30.0 30.0)
           (-30.0 30.0)
  end
  begin
     id 16
     name head
     direction 0.00881535 0.99956 -0.0283365  
     length 1.81545  
     axis 0 0 0   XYZ
    dof rx ry rz
    limits (-20.0 45.0)
           (-30.0 30.0)
           (-30.0 30.0)
  end
  begin
     id 17 
     name lclavicle
     direction 0.840411 0.486876 -0.238035  
     length 3.30409  
     axis 0 0 0   XYZ
    dof ry rz
    limits (-20.0 10.0)
           (0.0 20.0)
  end
  begin
     id 18 
     name lhumerus
     direction 1 -4.48977e-011 -5.16239e-027   
     length 4.62672   
     axis 180 -30 -90   XYZ
    dof rx ry rz
    limits (-60.0 90.0)
           (-90.0 90.0)
           (-90.0 90.0)
  end
  begin
     id 19
     name lradius
     direction 1 -4.48977e-011 -8.71171e-027   
     length 3.11018   
     axis 180 -30 -90   XYZ
    dof rx
    limits (-10.0 170.0)
  end
  begin
     id 20
     name lwrist
     direction 1 -4.48912e-011 -1.03764e-026   
     length 1.55509   
     axis 9.09556e-015 90 90   XYZ
    dof ry
    limits (-180.0 0.0)
 end
  begin
     id 21 
     name lhand
     direction 1 -4.49072e-011 -2.07528e-026   
     length 0.743834   
     axis 1.3242e-014 90 90   XYZ
    dof rx rz
    limits (-90.0 90.0)
           (-45.0 45.0)
  end
  begin
     id 22 
     name lfingers
     direction 1 -4.48909e-011 -4.15056e-026   
     length 0.599698   
     axis 2.64841e-014 90 90   XYZ
    dof rx
    limits (0.0 90.0)
  end
  begin
     id 23
     name lthumb
     direction 0.707107 -6.35013e-011 0.707107   
     length 0.86105   
     axis -90 45 2.85299e-015   XYZ
    dof rx rz
    limits (-45.0 45.0)
           (-45.0 45.0)
  end
  begin
     id 24 
     name rclavicle
     direction -0.835208 0.500237 -0.228452   
     length 3.2716  
     axis 0 0 0   XYZ 
    dof ry rz
    limits (-10.0 20.0)
           (-20.0 0.0)
  end
  begin
     id 25 
     name rhumerus
     direction -1 -4.48978e-011 -5.1953e-028  
     length 4.55919   
     axis 180 30 90   XYZ
    dof rx ry rz
    limits (-90.0 60.0)
           (-90.0 90.0)
           (-90.0 90.0)
  end
  begin
     id 26 
     name rradius
     direction -1 -4.48961e-011 -5.99546e-027   
     length 3.22748   
     axis 180 30 90   XYZ
    dof rx
    limits (-10.0 170.0)
  end
  begin
     id 27 
     name rwrist
     direction -1 -4.48986e-011 -1.03764e-026   
     length 1.61374   
     axis 9.09556e-015 -90 -90   XYZ
    dof ry
    limits (-180.0 0.0)
  end
  begin
     id 28
     name rhand
     direction -1 -4.4899e-011 -2.07528e-026   
     length 0.700882   
     axis 1.3242e-014 -90 -90   XYZ
    dof rx rz
    limits (-90.0 90.0)
           (-45.0 45.0)
  end
  begin
     id 29
     name rfingers
     direction -1 -4.48991e-011 -4.15056e-026   
     length 0.565069   
     axis 2.64841e-014 -90 -90   XYZ
    dof rx
    limits (0.0 90.0)
  end
  begin
     id 30
     name rthumb
     direction -0.707107 -6.34804e-011 0.707107   
     length 0.811329   
     axis -90 -45 -2.85299e-015   XYZ
    dof rx rz
    limits (-45.0 45.0)
           (-45.0 45.0)
  end
:hierarchy
  begin
    root lhipjoint rhipjoint lowerback
    lhipjoint lfemur
    lfemur ltibia
    ltibia lfoot
    lfoot ltoes
    rhipjoint rfemur
    rfemur rtibia
    rtibia rfoot
    rfoot rtoes
    lowerback upperback
    upperback thorax
    thorax lowerneck lclavicle rclavicle
    lowerneck upperneck
    upperneck head
    lclavicle lhumerus
    lhumerus lradius
    lradius lwrist
    lwrist lhand lthumb
    lhand lfingers
    rclavicle rhumerus
    rhumerus rradius
    rradius rwrist
    rwrist rhand rthumb
    rhand rfingers
  end

#!OML:ASF F:\VICON\USERDATA\INSTALL\SteveWalk\SteveWalk.ASF
:FULLY-SPECIFIED
:DEGREES
111
root -0.643169 16.2102 -22.4162 16.3756 4.80232 -0.569681
lowerback -14.397 -1.1834 4.01267
upperback -5.3569 -2.19522 2.72806
thorax 2.36451 -1.10088 0.237771
lowerneck -5.04331 -0.300435 0.710671
upperneck 8.39531 -0.0207349 -4.98502
head 3.63028 -0.196744 -1.77981
rclavicle 1.45361e-015 -7.95139e-016
rhumerus -77.8996 -45.3339 -17.7787
rradius 11.6763
rwrist 50.5307
rhand -13.7472 -33.2693
rfingers 7.12502
rthumb 12.3729 -62.8831
lclavicle 1.45361e-015 -7.95139e-016
lhumerus -32.2113 -1.63807 88.5885
lradius 46.3903
lwrist 9.07201
lhand -23.6833 -19.8811
lfingers 7.12502
lthumb 2.7832 10.0805
rfemur -45.1257 -3.48528 26.3816
rtibia 38.161
rfoot -12.2259 5.52482
rtoes -13.6618
lfemur -15.6322 -0.20489 -18.9694
ltibia 59.6954
lfoot 25.9133 -12.2516
ltoes -11.6763
112
root -0.650509 16.2424 -22.2231 16.3653 5.11813 -0.765827
lowerback -14.3329 -1.14992 4.20156
upperback -5.32004 -2.17709 2.82719
thorax 2.36532 -1.09184 0.239464
lowerneck -5.22583 -0.326703 0.638327
upperneck 8.48851 -0.0378857 -5.05593
head 3.69842 -0.214015 -1.79511
rclavicle -3.7502e-014 4.37326e-014
rhumerus -73.6109 -45.1349 -23.5372
rradius 12.0477
rwrist 46.7361
rhand -13.6352 -33.1731
rfingers 7.12502
rthumb 12.4808 -62.7804
lclavicle -3.7502e-014 4.37326e-014
lhumerus -32.1196 -1.83154 88.9909
lradius 44.8979
lwrist 8.50766
lhand -23.7469 -20.4888
lfingers 7.12502
lthumb 2.72179 9.4736
rfemur -44.2461 -3.5869 26.6563
rtibia 38.0475
rfoot -12.7624 5.23953
rtoes -13.0598
lfemur -17.613 -0.217371 -18.6473
ltibia 62.1775
lfoot 24.9406 -12.4004
ltoes -13.3325
113
root -0.653596 16.268 -22.0303 16.4352 5.11099 -0.986124
lowerback -14.359 -0.979933 4.39361
upperback -5.27669 -1.98435 2.88548
thorax 2.42429 -0.995368 0.222089
lowerneck -5.63935 -0.373815 0.648995
upperneck 8.73201 -0.0820708 -5.12274
head 3.86488 -0.246847 -1.83092
rclavicle 5.41067e-015 -2.14687e-014
rhumerus -69.9449 -44.9911 -28.2805
rradius 12.4069
rwrist 43.5747
rhand -13.5027 -33.2332
rfingers 7.12502
rthumb 12.6086 -62.8327
lclavicle 5.41067e-015 -2.14687e-014
lhumerus -32.0571 -2.12652 89.377
lradius 43.3597
lwrist 7.88233
lhand -23.7521 -21.1322
lfingers 7.12502
lthumb 2.71676 8.83024
rfemur -43.4671 -3.54434 26.9311
rtibia 37.92
rfoot -13.1269 5.02667
rtoes -12.9339
lfemur -19.5149 -0.0119492 -18.409
ltibia 64.4474
lfoot 24.9885 -11.6449
ltoes -3.66565
114
root -0.65579 16.2902 -21.8356 16.6742 4.88461 -1.2329
lowerback -14.6288 -0.737256 4.53931
upperback -5.37818 -1.69834 2.93737
thorax 2.46588 -0.853835 0.236756
lowerneck -5.42264 -0.470468 0.693919
upperneck 8.81506 -0.211164 -5.15932
head 3.8473 -0.309101 -1.85666
rclavicle 1.61699e-014 -5.56597e-015
rhumerus -67.1729 -44.9002 -31.7243
rradius 12.6575
rwrist 41.481
rhand -13.2913 -33.6312
rfingers 7.12502
rthumb 12.8124 -63.218
lclavicle 1.61699e-014 -5.56597e-015
lhumerus -32.4763 -2.33908 89.7762
lradius 42.1116
lwrist 7.15854
lhand -23.8739 -21.7723
lfingers 7.12502
lthumb 2.59913 8.19158
rfemur -42.8575 -3.37041 27.1923
rtibia 37.8054
rfoot -13.472 5.176
rtoes -10.7705
lfemur -21.5204 0.389952 -18.2371
ltibia 66.5064
lfoot 17.8253 -10.8997
ltoes -18.476
115
root -0.663748 16.3162 -21.6441 16.8803 4.75834 -1.30357
lowerback -14.822 -0.603744 4.44599
upperback -5.49582 -1.51733 2.98061
thorax 2.45408 -0.763874 0.362156
lowerneck -4.90734 -0.524093 0.672142
upperneck 8.63923 -0.289559 -5.19743
head 3.68136 -0.341239 -1.85953
rclavicle 1.84994e-014 1.03368e-014
rhumerus -63.2672 -43.9385 -36.7981
rradius 13.111
rwrist 38.1493
rhand -13.1253 -34.0348
rfingers 7.12502
rthumb 12.9724 -63.6115
lclavicle 1.84994e-014 1.03368e-014
lhumerus -32.9505 -2.16417 90.0383
lradius 40.7892
lwrist 5.99515
lhand -23.3766 -22.4653
lfingers 7.12502
lthumb 3.07945 7.49224
rfemur -42.2058 -3.31569 27.3128
rtibia 37.7106
rfoot -14.4938 5.08204
rtoes -12.0812
lfemur -23.5217 0.687449 -18.2407
ltibia 68.3527
lfoot 14.6746 -10.1277
ltoes -18.355
116
root -0.669396 16.3478 -21.4547 17.0516 4.65273 -1.17395
lowerback -14.9834 -0.538052 4.18137
upperback -5.50435 -1.4036 2.98118
thorax 2.54181 -0.703793 0.527979
lowerneck -4.73602 -0.508498 0.716408
upperneck 8.49398 -0.26896 -5.31803
head 3.59873 -0.330244 -1.90255
rclavicle 1.02374e-014 -3.02153e-014
rhumerus -58.659 -42.2766 -42.8054
rradius 13.8047
rwrist 33.898
rhand -13.0239 -34.1757
rfingers 7.12502
rthumb 13.0701 -63.7462
lclavicle 1.02374e-014 -3.02153e-014
lhumerus -33.2467 -1.84779 90.1883
lradius 39.371
lwrist 4.53861
lhand -22.552 -22.7018
lfingers 7.12502
lthumb 3.87569 7.24272
rfemur -41.5279 -3.43752 27.2719
rtibia 37.619
rfoot -15.6528 4.77451
rtoes -15.428
lfemur -25.3793 0.87689 -18.4976
ltibia 69.93
lfoot 12.6832 -9.27492
ltoes -14.5654
117
root -0.673919 16.3736 -21.2676 17.1888 4.4618 -0.987217
lowerback -15.1515 -0.482594 3.84765
upperback -5.46226 -1.29454 2.95061
thorax 2.68635 -0.645 0.699485
lowerneck -4.76792 -0.529875 0.77786
upperneck 8.56659 -0.296157 -5.35355
head 3.62985 -0.344542 -1.92865
rclavicle -3.95706e-015 1.51076e-014
rhumerus -54.8441 -40.9211 -47.5564
rradius 14.4148
rwrist 30.6071
rhand -13.0505 -34.2058
rfingers 7.12502
rthumb 13.0445 -63.7779
lclavicle -3.95706e-015 1.51076e-014
lhumerus -33.5391 -1.65724 90.3458
lradius 38.0045
lwrist 3.38731
lhand -22.697 -22.8858
lfingers 7.12502
lthumb 3.73573 7.06117
rfemur -40.8345 -3.39613 27.0758
rtibia 37.5126
rfoot -16.1354 4.67672
rtoes -14.7903
lfemur -27.0747 1.15644 -18.848
ltibia 71.295
lfoot 11.5857 -8.71974
ltoes -7.55692
118
root -0.680875 16.399 -21.0767 17.1265 4.31134 -0.756321
lowerback -15.1459 -0.477493 3.49506
upperback -5.39493 -1.23787 2.88702
thorax 2.76265 -0.613709 0.840269
lowerneck -4.8479 -0.518026 0.743772
upperneck 8.73131 -0.280279 -5.23468
head 3.70286 -0.336138 -1.8856
rclavicle -1.95057e-015 1.35174e-014
rhumerus -51.2818 -39.1354 -52.1797
rradius 15.1671
rwrist 27.1359
rhand -13.2871 -34.1685
rfingers 7.12502
rthumb 12.8164 -63.7551
lclavicle -1.95057e-015 1.35174e-014
lhumerus -33.8595 -1.41904 90.4315
lradius 36.7176
lwrist 2.60223
lhand -23.1057 -22.6775
lfingers 7.12502
lthumb 3.34106 7.27605
rfemur -39.8764 -3.2571 26.7561
rtibia 37.3767
rfoot -16.6073 4.55699
rtoes -13.6605
lfemur -28.5937 1.39973 -19.2265
ltibia 72.433
lfoot 11.5087 -8.3021
ltoes 0.48539
119
root -0.685721 16.4248 -20.8846 17.0167 4.13484 -0.537322
lowerback -15.1157 -0.421035 3.20213
upperback -5.33217 -1.11829 2.77443
thorax 2.81818 -0.552453 0.907309
lowerneck -4.73826 -0.474038 0.797082
upperneck 8.64604 -0.239683 -5.12496
head 3.65229 -0.307054 -1.85332
rclavicle -6.25551e-015 -1.11319e-014
rhumerus -48.0976 -37.0374 -56.5426
rradius 16.15
rwrist 23.6301
rhand -13.2998 -34.8741
rfingers 7.12502
rthumb 12.8042 -64.4615
lclavicle -6.25551e-015 -1.11319e-014
lhumerus -34.248 -1.23092 90.4879
lradius 35.4962
lwrist 1.92646
lhand -23.3244 -22.7383
lfingers 7.12502
lthumb 3.12978 7.21847
rfemur -38.8246 -3.1602 26.4604
rtibia 37.1923
rfoot -17.279 4.3609
rtoes -13.6983
lfemur -30.1896 1.65531 -19.6239
ltibia 73.3199
lfoot 7.27881 -6.92983
ltoes -12.1399
120
root -0.689533 16.4446 -20.6931 16.9586 3.93377 -0.383699
lowerback -15.0287 -0.351083 2.97941
upperback -5.33884 -0.985682 2.67214
thorax 2.76809 -0.486627 0.948721
lowerneck -4.59875 -0.486983 0.930586
upperneck 8.65943 -0.266805 -5.14146
head 3.62932 -0.315097 -1.88273
rclavicle 1.01939e-014 -1.27222e-014
rhumerus -45.3802 -34.5722 -60.547
rradius 17.3751
rwrist 20.1268
rhand -13.158 -35.6531
rfingers 7.12502
rthumb 12.9409 -65.2318
lclavicle 1.01939e-014 -1.27222e-014
lhumerus -34.7798 -0.994531 90.5082
lradius 34.1914
lwrist 1.11487
lhand -23.8679 -23.7473
lfingers 7.12502
lthumb 2.60496 6.21651
rfemur -37.8194 -3.04951 26.2502
rtibia 36.9663
rfoot -17.8769 4.23386
rtoes -12.8079
lfemur -31.737 1.95412 -19.9642
ltibia 73.9936
lfoot 6.69409 -6.12299
ltoes -8.52117
121
root -0.699949 16.4682 -20.4974 16.7912 4.08363 -0.154127
lowerback -14.8665 -0.467337 2.66673
upperback -5.28607 -1.08656 2.60944
thorax 2.74207 -0.535321 1.04294
lowerneck -4.71042 -0.501152 0.95248
upperneck 8.87713 -0.273288 -5.19413
head 3.72781 -0.323937 -1.91024
rclavicle -4.82053e-015 -5.56597e-015
rhumerus -42.9585 -31.987 -64.1031
rradius 18.5909
rwrist 16.741
rhand -13.4548 -34.8055
rfingers 7.12502
rthumb 12.6547 -64.4021
lclavicle -4.82053e-015 -5.56597e-015
lhumerus -35.2967 -0.52738 90.3735
lradius 32.8158
lwrist 0.0587836
lhand -24.2138 -24.4561
lfingers 7.12502
lthumb 2.27092 5.51158
rfemur -36.6096 -3.09879 26.0111
rtibia 36.6827
rfoot -18.5014 3.94116
rtoes -12.0395
lfemur -32.9457 1.88616 -20.2377
ltibia 74.3615
lfoot 4.37236 -4.63806
ltoes -12.8481
122
root -0.697464 16.4835 -20.3182 16.9533 3.7275 -0.0378692
lowerback -14.9242 -0.353756 2.62118
upperback -5.28211 -0.929596 2.50485
thorax 2.77622 -0.457737 0.985016
lowerneck -4.73464 -0.47064 0.888116
upperneck 8.82521 -0.231686 -5.16261
head 3.71536 -0.303834 -1.88536
rclavicle 5.24295e-015 5.56597e-015
rhumerus -40.6086 -29.8324 -67.1011
rradius 19.5522
rwrist 13.9678
rhand -13.962 -35.0261
rfingers 7.12502
rthumb 12.1657 -64.6524
lclavicle 5.24295e-015 5.56597e-015
lhumerus -35.7845 -0.133527 90.251
lradius 31.5862
lwrist -0.667382
lhand -24.318 -24.5734
lfingers 7.12502
lthumb 2.17029 5.39536
rfemur -35.9154 -2.98253 25.8149
rtibia 36.3994
rfoot -18.999 4.10565
rtoes -11.3337
lfemur -34.5957 2.16299 -20.6544
ltibia 74.5914
lfoot 2.99685 -3.34174
ltoes -14.0922
